<svg width="38" height="26" fill="none" xmlns="http://www.w3.org/2000/svg"><path fill-rule="evenodd" clip-rule="evenodd" d="M22.8 3.805v7.61c0 .7.567 1.268 1.267 1.268h11.4v7.61h-1.452a4.435 4.435 0 0 0-4.248-3.171 4.44 4.44 0 0 0-4.251 3.17h-10.5a4.435 4.435 0 0 0-4.25-3.17 4.44 4.44 0 0 0-4.25 3.17h-1.45a1.268 1.268 0 0 0 0 2.537h1.45A4.444 4.444 0 0 0 10.766 26a4.439 4.439 0 0 0 4.25-3.17h10.5a4.444 4.444 0 0 0 4.25 3.17 4.439 4.439 0 0 0 4.25-3.17h2.717c.7 0 1.267-.569 1.267-1.269V11.402a1.268 1.268 0 0 0-.18-.64c-.01-.017-.023-.035-.033-.053L32.721 3.1a1.267 1.267 0 0 0-1.054-.562h-6.334V1.268C25.333.566 24.766 0 24.067 0H6.333a1.268 1.268 0 0 0 0 2.537H22.8v1.268zm6.967 15.853a1.902 1.902 0 0 1 0 3.805 1.902 1.902 0 0 1 0-3.805zm-19 0a1.902 1.902 0 0 1 0 3.805 1.902 1.902 0 0 1 0-3.805zM6.333 15.22H1.267a1.268 1.268 0 0 0 0 2.537h5.066a1.268 1.268 0 0 0 0-2.537zm5.067-5.073H1.267a1.268 1.268 0 0 0 0 2.537H11.4a1.268 1.268 0 0 0 0-2.537zm13.933-5.073v5.073h9.034l-3.38-5.073h-5.654zm-11.4 0H3.8a1.268 1.268 0 0 0 0 2.537h10.133a1.268 1.268 0 0 0 0-2.537z" fill="#000"/></svg>