<svg width="16" height="16" fill="none" xmlns="http://www.w3.org/2000/svg"><path d="M7.692 8.736H2.857a.842.842 0 0 1-.606-.26A.906.906 0 0 1 2 7.847c0-.236.09-.462.251-.628a.842.842 0 0 1 .606-.26h4.835l-.96-.996a.907.907 0 0 1-.24-.625.906.906 0 0 1 .25-.621.842.842 0 0 1 .598-.261.841.841 0 0 1 .603.249l2.425 2.513a.888.888 0 0 1 .253.629.915.915 0 0 1-.253.629l-2.425 2.513a.84.84 0 0 1-.6.241.842.842 0 0 1-.592-.26.905.905 0 0 1-.251-.614.908.908 0 0 1 .231-.623l.961-.997zM13.142 0c.228 0 .446.094.607.26.16.167.251.393.251.629V15.11c0 .236-.09.462-.251.629a.842.842 0 0 1-.606.26.842.842 0 0 1-.606-.26.906.906 0 0 1-.251-.629V.89c0-.236.09-.462.25-.629a.842.842 0 0 1 .607-.26z" fill="#000"/></svg>