<svg width="16" height="16" fill="none" xmlns="http://www.w3.org/2000/svg"><g clip-path="url(#a)"><path fill-rule="evenodd" clip-rule="evenodd" d="M8.58 0H3.986a1.986 1.986 0 0 0-1.958 2.311l.366 2.197a.777.777 0 0 0 .778.665c.17.004.287.168.415.355.38.557.604 1.46.604 2.472s-.224 1.915-.604 2.472c-.128.187-.245.351-.414.355a.787.787 0 0 0-.778.665l-.367 2.197A1.986 1.986 0 0 0 3.985 16h4.596c1.274 0 2.463-.598 3.418-1.65 1.305-1.433 2.176-3.74 2.176-6.35 0-2.61-.871-4.917-2.176-6.35C11.044.597 9.855 0 8.581 0zM7.21 4.249l.365-2.194a.418.418 0 0 0-.094-.342.418.418 0 0 0-.321-.15H3.985a.418.418 0 0 0-.321.15.418.418 0 0 0-.094.342l.283 1.698c.377.163.73.461 1.025.894.517.758.876 1.974.876 3.353 0 1.379-.359 2.595-.876 3.353-.295.433-.647.731-1.025.894l-.283 1.698a.418.418 0 0 0 .094.342c.08.095.197.15.321.15H7.16a.418.418 0 0 0 .321-.15.418.418 0 0 0 .094-.342l-.366-2.194c-.005-.025-.007-.052-.01-.077a.771.771 0 0 1 .183-.57.781.781 0 0 1 .532-.274c.024-.002.047-.003.071-.003.169-.004.285-.168.413-.355.38-.557.604-1.46.604-2.472s-.224-1.915-.604-2.472c-.128-.187-.244-.351-.413-.355l-.07-.002a.782.782 0 0 1-.715-.845c.002-.025.004-.052.01-.077zM9.11 1.622c.042.225.046.458.007.689l-.257 1.54c.303.173.586.439.829.796.517.758.876 1.974.876 3.353 0 1.379-.359 2.595-.876 3.353a2.551 2.551 0 0 1-.83.796l.258 1.54c.039.231.035.464-.007.69.643-.14 1.23-.529 1.731-1.081 1.085-1.193 1.769-3.127 1.769-5.298 0-2.171-.684-4.105-1.769-5.298-.501-.552-1.088-.94-1.73-1.08z" fill="#1B1B1B"/></g><defs><clipPath id="a"><path fill="#fff" d="M0 0h16v16H0z"/></clipPath></defs></svg>