<svg width="16" height="16" fill="none" xmlns="http://www.w3.org/2000/svg"><path d="m2.522 7.293 5.49 5.588 5.491-5.588a2.659 2.659 0 0 0 .758-1.863c0-.699-.272-1.369-.758-1.863a2.586 2.586 0 0 0-.84-.571 2.549 2.549 0 0 0-2.82.57L8.013 5.43l-1.83-1.861a2.565 2.565 0 0 0-1.826-.757 2.566 2.566 0 0 0-1.82.771 2.658 2.658 0 0 0-.758 1.852 2.659 2.659 0 0 0 .743 1.859zm4.88-4.969.61.621.61-.62c.4-.411.876-.737 1.4-.96a4.248 4.248 0 0 1 3.31-.008 4.31 4.31 0 0 1 1.405.954c.401.409.72.894.936 1.429a4.458 4.458 0 0 1-.007 3.369 4.396 4.396 0 0 1-.943 1.424l-6.1 6.21a.863.863 0 0 1-.61.257.85.85 0 0 1-.61-.258l-6.1-6.208A4.394 4.394 0 0 1 .344 7.11a4.458 4.458 0 0 1-.021-3.386 4.397 4.397 0 0 1 .94-1.437 4.31 4.31 0 0 1 1.412-.957 4.248 4.248 0 0 1 3.327.021 4.312 4.312 0 0 1 1.4.975z" fill="#000"/></svg>