<svg width="16" height="16" fill="none" xmlns="http://www.w3.org/2000/svg"><path fill-rule="evenodd" clip-rule="evenodd" d="M7.218 3.679c-.63.113-1.214.36-1.72.713L3.14 2.033a.785.785 0 0 0-1.107 0 .785.785 0 0 0 0 1.107l2.36 2.358c-.353.506-.601 1.09-.714 1.72H.782a.782.782 0 1 0 0 1.564h2.897c.113.63.36 1.214.713 1.72L2.033 12.86a.78.78 0 0 0-.227.581v.039l.003.018c.018.17.093.338.224.469a.785.785 0 0 0 1.107 0l.86-.861.167.593a.78.78 0 1 0 1.505-.424l-.404-1.437.23-.23c.506.352 1.09.6 1.72.713v2.897a.782.782 0 1 0 1.564 0v-.539l.07.035a.781.781 0 1 0 .701-1.398l-.771-.386v-.609a4.355 4.355 0 0 0 1.72-.713l.23.23-.404 1.437a.781.781 0 0 0 1.505.424l.167-.593.86.86a.785.785 0 0 0 1.107 0 .785.785 0 0 0 0-1.106l-.861-.86.593-.167a.78.78 0 1 0-.424-1.505l-1.437.404-.23-.23c.352-.506.6-1.09.713-1.72h.609l.386.771a.781.781 0 1 0 1.398-.7l-.035-.071h.539a.782.782 0 1 0 0-1.564h-.539l.035-.07a.781.781 0 1 0-1.398-.701l-.386.771h-.609a4.354 4.354 0 0 0-.713-1.72l.23-.23 1.437.404a.781.781 0 0 0 .424-1.505L13.106 4l.86-.86a.785.785 0 0 0 0-1.107.785.785 0 0 0-1.106 0l-2.358 2.36a4.355 4.355 0 0 0-1.72-.714V.782a.782.782 0 1 0-1.564 0v2.897zm3.257 2.953a2.828 2.828 0 0 1-3.842 3.842l3.842-3.842zM9.368 5.525 5.525 9.368a2.828 2.828 0 0 1 3.842-3.842z" fill="#000"/></svg>