<svg width="16" height="16" fill="none" xmlns="http://www.w3.org/2000/svg"><path fill-rule="evenodd" clip-rule="evenodd" d="M4.992 15.797h6.016a.782.782 0 1 0 0-1.564H4.992a.783.783 0 0 0 0 1.564zM8 1C3.585 1 0 4.585 0 9c0 2.18.873 4.158 2.29 5.601a.777.777 0 0 0 .607.232.787.787 0 0 0 .604-.227l1.275-1.276a.781.781 0 1 0-1.106-1.106l-.74.74a6.402 6.402 0 0 1-1.32-3.182h.976a.782.782 0 1 0 0-1.564h-.975a6.393 6.393 0 0 1 1.32-3.18l.74.74A.783.783 0 0 0 4.776 4.67l-.74-.74a6.412 6.412 0 0 1 3.181-1.319v.974a.782.782 0 1 0 1.564 0v-.974a6.397 6.397 0 0 1 3.182 1.32l-.74.738a.785.785 0 0 0 0 1.107.785.785 0 0 0 1.107 0l.739-.74a6.403 6.403 0 0 1 1.32 3.181h-.976a.783.783 0 0 0 0 1.564h.975a6.41 6.41 0 0 1-1.312 3.172l-.73-.73a.781.781 0 1 0-1.106 1.106l1.276 1.276c.163.164.38.24.595.227a.778.778 0 0 0 .599-.232A7.976 7.976 0 0 0 16 9c0-4.415-3.585-8-8-8zm-.398 6.675a1.384 1.384 0 1 0 1.49.476l.856-2.69a.782.782 0 0 0-1.49-.474l-.856 2.688z" fill="#000"/></svg>