<svg width="16" height="16" fill="none" xmlns="http://www.w3.org/2000/svg"><path fill-rule="evenodd" clip-rule="evenodd" d="M4.957 4.812H3.609c-.928 0-1.732.644-1.936 1.55L.048 13.579A1.983 1.983 0 0 0 1.985 16h11.429a1.985 1.985 0 0 0 1.937-2.42l-1.624-7.218a1.986 1.986 0 0 0-1.937-1.55h-1.348a3.189 3.189 0 1 0-5.486 0zM3.609 6.376h8.18c.198 0 .369.136.411.328l1.624 7.218a.42.42 0 0 1-.41.514H1.985a.42.42 0 0 1-.41-.514l1.624-7.218a.419.419 0 0 1 .41-.328zm1.484 4.752.107-.1 1.226 1.556a.602.602 0 0 0 .944-.746L6.078 10.2 7.31 9.04a.602.602 0 0 0-.825-.876l-1.392 1.31v-.873a.602.602 0 0 0-1.203 0v3.61a.602.602 0 0 0 1.203 0v-1.083zM10.908 8H8.903a.602.602 0 0 0-.602.601v3.61a.602.602 0 0 0 1.203 0V9.203h1.404a.602.602 0 0 0 0-1.203zM7.7 1.564a1.625 1.625 0 0 1 0 3.248 1.625 1.625 0 0 1 0-3.248z" fill="#000"/></svg>