<svg width="16" height="16" fill="none" xmlns="http://www.w3.org/2000/svg"><g clip-path="url(#a)"><path fill-rule="evenodd" clip-rule="evenodd" d="M10.777 0H5.223C4.025 0 2.9.602 2.002 1.672.802 3.102 0 5.4 0 8s.802 4.899 2.002 6.328C2.9 15.398 4.025 16 5.223 16h5.554c1.198 0 2.323-.601 3.221-1.672C15.198 12.898 16 10.6 16 8s-.802-4.899-2.002-6.328C13.1.602 11.975 0 10.777 0zM5.223 1.564c-.762 0-1.45.433-2.023 1.114C2.194 3.878 1.564 5.819 1.564 8s.63 4.123 1.636 5.322c.573.681 1.26 1.114 2.023 1.114h2.425a7.362 7.362 0 0 1-.093-.108C6.355 12.898 5.552 10.6 5.552 8s.803-4.899 2.003-6.328l.093-.108H5.223zm5.554 12.872c-.763 0-1.452-.433-2.024-1.114-1.007-1.2-1.637-3.14-1.637-5.322 0-2.181.63-4.123 1.637-5.322.572-.681 1.26-1.114 2.024-1.114.762 0 1.45.433 2.023 1.114 1.006 1.2 1.636 3.141 1.636 5.322s-.63 4.123-1.636 5.322c-.573.681-1.26 1.114-2.024 1.114zm0-10.827c-.444 0-.898.223-1.266.72-.512.69-.905 2.07-.905 3.671s.393 2.981.905 3.672c.368.496.822.719 1.266.719.442 0 .896-.223 1.265-.72.511-.69.905-2.07.905-3.671s-.394-2.981-.905-3.672c-.37-.496-.823-.719-1.265-.719zm0 1.653c.043.057.093.127.126.189.302.574.48 1.505.48 2.549s-.178 1.975-.48 2.55a1.47 1.47 0 0 1-.127.188 1.372 1.372 0 0 1-.127-.189c-.3-.574-.479-1.505-.479-2.549s.178-1.975.479-2.55c.033-.06.083-.131.128-.188z" fill="#1B1B1B"/></g><defs><clipPath id="a"><path fill="#fff" d="M0 0h16v16H0z"/></clipPath></defs></svg>