<svg xmlns="http://www.w3.org/2000/svg" viewBox="0 0 839 193" fill-rule="evenodd" stroke-linejoin="round" stroke-miterlimit="2" xmlns:v="https://vecta.io/nano"><g transform="matrix(.815268 0 0 .815268 2.45 502.463)"><path d="M88.612-479.761c23.964 2.776 41.023 7.927 51.178 15.452s15.233 18.813 15.233 33.863-7.379 27.251-22.137 36.602-34.338 14.028-58.739 14.028-43.361-4.493-56.877-13.48-20.274-20.054-20.274-33.205c0-3.215 1.68-4.822 5.041-4.822h44.932c3.068 0 5.552.95 7.452 2.849 4.091 3.946 11.178 5.918 21.26 5.918 13.881 0 20.822-2.119 20.822-6.356 0-2.63-2.192-4.712-6.576-6.247s-13.077-3.032-26.082-4.493c-41.351-4.968-62.027-20.822-62.027-47.561 0-15.051 6.648-27.215 19.945-36.493s31.087-13.918 53.37-13.918 40.292 4.858 54.027 14.575 20.603 19.982 20.603 30.795c0 1.461-.475 2.63-1.425 3.506s-2.228 1.316-3.835 1.316H97.379c-2.63 0-4.895-.877-6.794-2.631-3.507-3.214-8.767-4.822-15.781-4.822-9.79 0-14.685 2.046-14.685 6.137 0 2.192 1.9 3.909 5.699 5.151s11.397 2.521 22.794 3.836zm192.02-55.671h45.151c1.607 0 2.995.584 4.164 1.753s1.754 2.557 1.754 4.164v141.589c0 1.608-.585 2.996-1.754 4.165s-2.557 1.753-4.164 1.753h-45.151c-1.607 0-2.995-.584-4.164-1.753s-1.754-2.557-1.754-4.165v-46.685h-43.835v46.685c0 1.608-.585 2.996-1.754 4.165s-2.557 1.753-4.164 1.753H179.81a5.88 5.88 0 0 1-4.164-1.644c-1.169-1.096-1.753-2.52-1.753-4.274v-141.589c0-1.607.584-2.995 1.753-4.164s2.557-1.753 4.164-1.753h45.151c1.607 0 2.996.584 4.164 1.753s1.754 2.557 1.754 4.164v44.932h43.835v-44.932c0-1.607.585-2.995 1.754-4.164s2.557-1.753 4.164-1.753zm218.589 44.931H459.55v63.562h39.671c1.608 0 2.996.584 4.165 1.753s1.753 2.557 1.753 4.164v33.096c0 1.608-.584 2.996-1.753 4.165s-2.557 1.753-4.165 1.753H360.262c-1.607 0-2.995-.584-4.164-1.753s-1.753-2.557-1.753-4.165v-33.096c0-1.607.584-2.995 1.753-4.164s2.557-1.753 4.164-1.753h40.11v-63.562h-40.11c-1.607 0-2.995-.584-4.164-1.753s-1.753-2.557-1.753-4.165v-33.096c0-1.607.584-2.995 1.753-4.164s2.557-1.753 4.164-1.753h138.959c1.608 0 2.996.584 4.165 1.753s1.753 2.557 1.753 4.164v33.096c0 1.608-.584 2.996-1.753 4.165s-2.557 1.753-4.165 1.753z" fill="#ffbe00" fill-rule="nonzero"/><circle cx="231.207" cy="-562.021" r="29.436" fill="red" transform="matrix(1.11207 0 0 1.11207 172.623 41.4279)"/><path d="M631.454-535.432h40.767c1.607 0 2.995.584 4.164 1.753s1.753 2.557 1.753 4.164v141.589c0 1.608-.584 2.996-1.753 4.165s-2.557 1.753-4.164 1.753h-35.288c-3.507 0-6.429-1.534-8.767-4.603l-47.781-60.931v59.616c0 1.608-.584 2.996-1.753 4.165s-2.557 1.753-4.165 1.753H533.7c-1.607 0-2.995-.584-4.164-1.753s-1.754-2.557-1.754-4.165v-141.589c0-1.607.585-2.995 1.754-4.164s2.557-1.753 4.164-1.753h35.507c3.507 0 6.356 1.461 8.548 4.383l47.781 65.973v-64.439c0-1.607.584-2.995 1.753-4.164s2.557-1.753 4.165-1.753zm75.246 0h81.972c20.749 0 37.188 5.041 49.315 15.123s18.192 23.013 18.192 38.794-5.114 28.311-15.342 37.589-27.617 13.918-52.165 13.918h-28.931v42.082c0 1.608-.585 2.996-1.754 4.165s-2.557 1.753-4.164 1.753H706.7c-1.607 0-2.996-.584-4.165-1.753s-1.753-2.557-1.753-4.165v-141.589c0-1.607.584-2.995 1.753-4.164s2.558-1.753 4.165-1.753zm53.26 40.767v24.109h27.836c3.36 0 6.1-1.023 8.219-3.068s3.178-4.895 3.178-8.548-1.023-6.649-3.069-8.987-4.822-3.506-8.328-3.506H759.96zm259.968 4.164h-39.67v63.562h39.67c1.61 0 2.99.584 4.16 1.753s1.76 2.557 1.76 4.164v33.096c0 1.608-.59 2.996-1.76 4.165s-2.55 1.753-4.16 1.753H880.967c-1.607 0-2.995-.584-4.164-1.753s-1.754-2.557-1.754-4.165v-33.096c0-1.607.585-2.995 1.754-4.164s2.557-1.753 4.164-1.753h40.11v-63.562h-40.11c-1.607 0-2.995-.584-4.164-1.753s-1.754-2.557-1.754-4.165v-33.096c0-1.607.585-2.995 1.754-4.164s2.557-1.753 4.164-1.753h138.961c1.61 0 2.99.584 4.16 1.753s1.76 2.557 1.76 4.164v33.096c0 1.608-.59 2.996-1.76 4.165s-2.55 1.753-4.16 1.753z" fill="#ffbe00" fill-rule="nonzero"/></g></svg>