<svg width="98" height="28" viewBox="0 0 98 28" fill="none" xmlns="http://www.w3.org/2000/svg"><path d="M46.508 7.459a3.73 3.73 0 1 0 0-7.459 3.73 3.73 0 0 0 0 7.459z" fill="red"/><path d="M2.609 15.215c.303-1.716 1.259-3.112 2.87-4.188 1.61-1.076 3.573-1.615 5.885-1.615 2.314 0 4.106.564 5.38 1.69 1.271 1.127 1.8 2.305 1.584 3.533a.654.654 0 0 1-.233.39.607.607 0 0 1-.395.165h-5.046c-.386 0-.714-.143-.984-.43-.269-.285-.673-.428-1.21-.428-.808 0-1.254.235-1.337.706-.044.253.117.463.482.631.366.168 1.075.32 2.127.454 2.451.32 4.135.904 5.053 1.754.918.849 1.226 2.136.922 3.86-.304 1.724-1.338 3.128-3.103 4.213-1.764 1.085-3.915 1.627-6.456 1.627-2.539 0-4.44-.521-5.703-1.564C1.182 24.97.683 23.7.947 22.203a.652.652 0 0 1 .233-.39.637.637 0 0 1 .42-.165h4.794c.353 0 .714.169 1.084.505.37.336.932.505 1.69.505 1.261 0 1.934-.236 2.017-.707.053-.303-.133-.534-.56-.694-.426-.16-1.254-.323-2.486-.492-4.238-.572-6.082-2.422-5.53-5.55zM33.289 9.662h4.945a.564.564 0 0 1 .56.681L35.92 26.641a.8.8 0 0 1-.286.48.78.78 0 0 1-.514.201h-4.945a.564.564 0 0 1-.561-.681l.96-5.45h-4.087l-.961 5.45a.8.8 0 0 1-.286.48.78.78 0 0 1-.514.201H19.78a.57.57 0 0 1-.447-.189c-.113-.126-.15-.29-.115-.492l2.874-16.298a.8.8 0 0 1 .286-.48.78.78 0 0 1 .516-.201h4.945a.564.564 0 0 1 .56.681l-.934 5.298h4.087l.934-5.298a.8.8 0 0 1 .286-.48.78.78 0 0 1 .516-.201zM44.912 27.322h-5.148a.564.564 0 0 1-.56-.681l2.874-16.298a.8.8 0 0 1 .286-.48.78.78 0 0 1 .515-.201h5.147a.564.564 0 0 1 .56.681l-2.873 16.298a.8.8 0 0 1-.286.48.78.78 0 0 1-.515.201zM62.64 9.662h4.566a.564.564 0 0 1 .561.681l-2.873 16.298a.8.8 0 0 1-.286.48.781.781 0 0 1-.516.201h-3.986c-.438 0-.748-.193-.931-.58l-3.13-6.434-1.117 6.333a.8.8 0 0 1-.286.48.78.78 0 0 1-.515.201h-4.566a.564.564 0 0 1-.561-.681l2.873-16.298a.8.8 0 0 1 .286-.48.78.78 0 0 1 .516-.201h3.986c.47 0 .78.193.931.58l3.032 6.988 1.214-6.887a.802.802 0 0 1 .287-.48.778.778 0 0 1 .515-.201zM71.848 9.662h7.519c2.421 0 4.222.521 5.4 1.564 1.179 1.043 1.588 2.582 1.229 4.617s-1.301 3.54-2.827 4.516c-1.526.975-3.509 1.463-5.947 1.463h-1.64l-.85 4.82a.8.8 0 0 1-.286.478.781.781 0 0 1-.515.202h-5.197a.565.565 0 0 1-.561-.681l2.873-16.298a.803.803 0 0 1 .287-.48.778.778 0 0 1 .515-.201zm4.924 4.692-.494 2.8h1.767c.303 0 .591-.113.867-.34.276-.227.45-.55.525-.971.074-.42.043-.774-.09-1.06-.135-.286-.405-.429-.808-.429h-1.767zM92.194 27.322h-5.148a.564.564 0 0 1-.56-.681l2.874-16.298a.8.8 0 0 1 .286-.48.78.78 0 0 1 .514-.201h5.148a.564.564 0 0 1 .56.681l-2.874 16.298a.8.8 0 0 1-.285.48.78.78 0 0 1-.515.201z" fill="#FFBE00"/></svg>