<svg width="125" height="28" viewBox="0 0 125 28" fill="none" xmlns="http://www.w3.org/2000/svg">
<path d="M52.28 7.411c2.047 0 3.706-1.659 3.706-3.706S54.326 0 52.28 0s-3.706 1.659-3.706 3.706 1.659 3.706 3.706 3.706z" fill="red"/><path d="M10.794 16.224c2.823.327 4.833.934 6.03 1.821s1.795 2.217 1.795 3.99-.869 3.211-2.608 4.313S11.965 28 9.09 28s-5.109-.529-6.701-1.588S0 24.049 0 22.5c0-.379.198-.568.594-.568h5.294c.361 0 .654.112.878.336.482.465 1.317.697 2.505.697 1.635 0 2.453-.25 2.453-.749 0-.31-.258-.555-.775-.736s-1.541-.357-3.073-.529C3.004 20.365.568 18.497.568 15.346c0-1.773.783-3.206 2.35-4.3s3.663-1.64 6.288-1.64 4.747.572 6.366 1.717 2.427 2.354 2.427 3.628c0 .172-.056.31-.168.413s-.262.155-.452.155h-5.552a1.14 1.14 0 0 1-.8-.31c-.413-.379-1.033-.568-1.859-.568-1.153 0-1.73.241-1.73.723 0 .258.224.461.671.607s1.343.297 2.686.452zm23.212-6.559h5.32a.67.67 0 0 1 .491.207.67.67 0 0 1 .207.491v16.682a.67.67 0 0 1-.697.697h-5.32a.67.67 0 0 1-.697-.697v-5.5h-5.165v5.5a.67.67 0 0 1-.697.697h-5.32c-.189 0-.353-.065-.491-.194s-.206-.297-.206-.504V10.362a.67.67 0 0 1 .206-.491.67.67 0 0 1 .491-.207h5.32a.67.67 0 0 1 .491.207.67.67 0 0 1 .207.491v5.294h5.165v-5.294a.67.67 0 0 1 .207-.491.67.67 0 0 1 .491-.207zm26.459 5.294h-4.674v7.489h4.674a.67.67 0 0 1 .697.697v3.899a.67.67 0 0 1-.697.697H44.092a.67.67 0 0 1-.697-.697v-3.899a.67.67 0 0 1 .697-.697h4.726v-7.489h-4.726a.67.67 0 0 1-.491-.207.67.67 0 0 1-.207-.491v-3.899a.67.67 0 0 1 .207-.491.67.67 0 0 1 .491-.207h16.372a.67.67 0 0 1 .491.207.67.67 0 0 1 .206.491v3.899a.67.67 0 0 1-.206.491.67.67 0 0 1-.491.207zm16.286-5.294h4.803a.67.67 0 0 1 .491.207.67.67 0 0 1 .207.491v16.682a.67.67 0 0 1-.697.697h-4.158c-.413 0-.757-.181-1.033-.542l-5.63-7.179v7.024a.67.67 0 0 1-.697.697h-4.803a.67.67 0 0 1-.697-.697V10.362a.67.67 0 0 1 .207-.491.67.67 0 0 1 .491-.207h4.183c.413 0 .749.172 1.007.516l5.63 7.773v-7.592a.67.67 0 0 1 .206-.491.67.67 0 0 1 .491-.207zm9.571 0h9.658c2.445 0 4.381.594 5.81 1.782s2.144 2.711 2.144 4.571-.603 3.336-1.808 4.429-3.254 1.64-6.146 1.64h-3.409v4.958a.67.67 0 0 1-.697.697h-5.552a.67.67 0 0 1-.697-.697V10.362a.67.67 0 0 1 .207-.491.67.67 0 0 1 .491-.207zm6.275 4.803v2.841h3.28c.396 0 .719-.121.968-.362s.374-.577.374-1.007-.121-.783-.362-1.059-.568-.413-.981-.413h-3.28zm31.026.491h-4.674v7.489h4.674a.67.67 0 0 1 .698.697v3.899a.67.67 0 0 1-.208.491c-.138.138-.3.207-.49.207h-16.372a.67.67 0 0 1-.698-.697v-3.899a.67.67 0 0 1 .698-.697h4.725V14.96h-4.725a.67.67 0 0 1-.491-.207.67.67 0 0 1-.207-.491v-3.899a.67.67 0 0 1 .207-.491.67.67 0 0 1 .491-.207h16.372c.19 0 .352.069.49.207a.67.67 0 0 1 .208.491v3.899a.67.67 0 0 1-.208.491c-.138.138-.3.207-.49.207z" fill="#ffbe00"/>
</svg>